<?xml version="1.0" encoding="utf-8"?>
<!-- Generator: Adobe Illustrator 26.3.1, SVG Export Plug-In . SVG Version: 6.00 Build 0)  -->
<svg version="1.1" id="Layer_1" xmlns="http://www.w3.org/2000/svg" xmlns:xlink="http://www.w3.org/1999/xlink" x="0px" y="0px"
	 width="592.2px" height="89.5px" viewBox="0 0 592.2 89.5" style="enable-background:new 0 0 592.2 89.5;" xml:space="preserve">
<style type="text/css">
	.st0{fill-rule:evenodd;clip-rule:evenodd;fill:#F05E26;}
	.st1{fill-rule:evenodd;clip-rule:evenodd;fill:#2C333A;}
	.st2{fill:#F05E26;}
	.st3{fill:#2C333A;}
</style>
<g>
	<path class="st0" d="M1.7,70.4h11.5c0.5,0,0.9-0.4,0.9-0.9V41.4c0-7.6,3.7-11.5,11-11.5h3.5c0.5,0,1-0.4,1-1V17.3c0-0.5-0.4-1-1-1
		h-0.9c-17.5,0-26.5,8.4-26.9,25.3v27.9C0.8,70,1.2,70.4,1.7,70.4z"/>
	<path class="st0" d="M59.2,16.2c-15.9,0.1-23.9,9-23.9,26.8c0,17.8,7.9,27,23.7,27.5c3.3,0.1,6.7-0.4,9.8-1.5
		c2.7-1,5.1-2.5,7.1-4.5c2-2.1,3.6-4.6,4.6-7.2c0.4-0.9,0.7-1.8,1-2.7c0.2-0.6-0.3-1.2-0.9-1.2c-2.7,0-8.8,0-9,0h-2.5
		c-0.4,0-0.7,0.2-0.9,0.5c-1.7,3.2-5.4,5.1-9,5.1c-6.4,0-9.9-4.1-10.4-12.1h33.8C83.6,26.4,75.8,16.2,59.2,16.2z M49,37.5
		C50,30.6,53.4,27,59,27s8.9,3.6,9.7,10.5C68.7,37.5,49,37.5,49,37.5z"/>
	<path class="st0" d="M282.8,16.2c-15.9,0.1-23.9,9-23.9,26.8c0,17.8,7.9,27,23.7,27.5c3.3,0.1,6.7-0.4,9.8-1.5
		c2.7-1,5.1-2.5,7.1-4.5c2-2.1,3.6-4.6,4.6-7.2c0.4-0.9,0.7-1.8,1-2.7c0.2-0.6-0.3-1.2-0.9-1.2c-2.7,0-8.8,0-9,0h-2.5
		c-0.4,0-0.7,0.2-0.9,0.5c-1.7,3.2-5.4,5.1-9,5.1c-6.4,0-9.9-4.1-10.4-12.1h33.8C307.2,26.4,299.4,16.2,282.8,16.2z M272.6,37.5
		c1-6.9,4.4-10.5,10-10.5s8.9,3.6,9.7,10.5C292.3,37.5,272.6,37.5,272.6,37.5z"/>
	<path class="st1" d="M390.5,16.2c-15.9,0.1-23.9,9-23.9,26.8c0,17.8,7.9,27,23.7,27.5c3.3,0.1,6.7-0.4,9.8-1.5
		c2.7-1,5.1-2.5,7.1-4.5c2-2.1,3.6-4.6,4.6-7.2c0.4-0.9,0.7-1.8,1-2.7c0.2-0.6-0.3-1.2-0.9-1.2c-2.7,0-8.8,0-9,0h-2.5
		c-0.4,0-0.7,0.2-0.9,0.5c-1.7,3.2-5.4,5.1-9,5.1c-6.4,0-9.9-4.1-10.4-12.1H414C414.9,26.4,407.1,16.2,390.5,16.2z M380.4,37.5
		c1-6.9,4.4-10.5,10-10.5c5.6,0,8.9,3.6,9.7,10.5C400,37.5,380.4,37.5,380.4,37.5z"/>
	<path class="st1" d="M567.9,16.2C552,16.3,544,25.2,544,43c0,17.8,7.9,27,23.7,27.5c3.3,0.1,6.7-0.4,9.8-1.5c2.7-1,5.1-2.5,7.1-4.5
		c2-2.1,3.6-4.6,4.6-7.2c0.4-0.9,0.7-1.8,1-2.7c0.2-0.6-0.3-1.2-0.9-1.2c-2.7,0-8.8,0-9,0h-2.5c-0.4,0-0.7,0.2-0.9,0.5
		c-1.7,3.2-5.4,5.1-9,5.1c-6.4,0-9.9-4.1-10.4-12.1h33.8C592.3,26.4,584.5,16.2,567.9,16.2z M557.8,37.5c1-6.9,4.4-10.5,10-10.5
		s8.9,3.6,9.7,10.5C577.4,37.5,557.8,37.5,557.8,37.5z"/>
	<path class="st0" d="M134.9,54.5c0.2-0.6-0.3-1.2-0.9-1.2c-2.8,0-9.4,0-11.5,0c-0.4,0-0.7,0.2-0.8,0.5c-2.2,4.1-7.2,5.8-11.7,4.8
		c-3.9-0.9-6.2-4.2-7.1-7.9c-0.6-2.4-0.8-4.9-0.8-7.3c0-10.4,3.5-15.6,10.4-15.6c4,0,7.5,1.7,9.2,4.9c0.2,0.3,0.5,0.5,0.9,0.5h11.6
		c0.6,0,1.1-0.6,0.9-1.2c-2.6-10.6-10-15.8-22.2-15.8c-16.1,0.3-24.1,9.3-24.1,27.2c0.4,18,8.5,27.1,24.3,27.1
		c3.5,0,7.2-0.4,10.4-1.8c1.6-0.7,3.1-1.6,4.4-2.7c1.3-1.1,2.4-2.3,3.4-3.7c1-1.4,1.8-2.9,2.5-4.5c0.3-0.7,0.6-1.4,0.8-2.2
		C134.7,55.3,134.8,54.9,134.9,54.5z"/>
	<path class="st0" d="M233.2,54.5c0.2-0.6-0.3-1.2-0.9-1.2c-2.8,0-9.4,0-11.5,0c-0.4,0-0.7,0.2-0.8,0.5c-2.2,4.1-7.2,5.8-11.7,4.8
		c-3.9-0.9-6.2-4.2-7.1-7.9c-0.6-2.4-0.8-4.9-0.8-7.3c0-10.4,3.5-15.6,10.4-15.6c4,0,7.5,1.7,9.2,4.9c0.2,0.3,0.5,0.5,0.9,0.5h11.6
		c0.6,0,1.1-0.6,0.9-1.2c-2.6-10.6-10-15.8-22.2-15.8C195,16.5,187,25.5,187,43.4c0.4,18,8.5,27.1,24.3,27.1c3.5,0,7.2-0.4,10.4-1.8
		c1.6-0.7,3.1-1.6,4.4-2.7c1.3-1.1,2.4-2.3,3.4-3.7c1-1.4,1.8-2.9,2.5-4.5c0.3-0.7,0.6-1.4,0.8-2.2C233,55.3,233.1,54.9,233.2,54.5z
		"/>
	<path class="st1" d="M537.1,54.5c0.2-0.6-0.3-1.2-0.9-1.2c-2.8,0-9.4,0-11.5,0c-0.4,0-0.7,0.2-0.8,0.5c-2.2,4.1-7.2,5.8-11.7,4.8
		c-3.9-0.9-6.2-4.2-7.1-7.9c-0.6-2.4-0.8-4.9-0.8-7.3c0-10.4,3.5-15.6,10.4-15.6c4,0,7.5,1.7,9.2,4.9c0.2,0.3,0.5,0.5,0.9,0.5h11.6
		c0.6,0,1.1-0.6,0.9-1.2c-2.6-10.6-10-15.8-22.2-15.8c-16.1,0.3-24.1,9.3-24.1,27.2c0.4,18,8.5,27.1,24.3,27.1
		c3.5,0,7.2-0.4,10.4-1.8c1.6-0.7,3.1-1.6,4.4-2.7c1.3-1.1,2.4-2.3,3.4-3.7c1-1.4,1.8-2.9,2.5-4.5c0.3-0.7,0.6-1.4,0.8-2.2
		C536.8,55.3,537,54.9,537.1,54.5z"/>
	<path class="st0" d="M184.8,16.2h-12.4c-0.4,0-0.8,0.3-0.9,0.7l-10.4,36.4l-11.3-36.4c-0.1-0.4-0.5-0.7-0.9-0.7h-12.4
		c-0.7,0-1.1,0.7-0.9,1.3l18,50.6c2.1,6.9-0.5,10.5-7.7,10.5h-2.7c-0.5,0-1,0.4-1,1v9.1c0,0.5,0.4,0.9,0.8,0.9
		c0.9,0.1,2.4,0.2,4.7,0.2c10.9,0,14-3,17.2-11.6l15.5-45.9l5.3-14.8C186,16.9,185.5,16.2,184.8,16.2z"/>
	<path class="st1" d="M464.6,15.9h-12.4c-0.4,0-0.8,0.3-0.9,0.7l-3.3,10.8l-8.5,27.1l-10.8-37.7c-0.1-0.4-0.5-0.7-0.9-0.7h-12.4
		c-0.7,0-1.1,0.7-0.9,1.3L432.9,70h13.9l15.6-44c0,0,0,0,0,0l3.1-8.8C465.7,16.6,465.3,15.9,464.6,15.9z"/>
	<path class="st2" d="M240.1,2.1h11.4c0.5,0,1,0.4,1,1v66.4c0,0.5-0.4,1-1,1h-11.4c-0.5,0-1-0.4-1-1V3.1
		C239.1,2.5,239.6,2.1,240.1,2.1z"/>
	<path class="st3" d="M472.8,16.2h11.4c0.5,0,1,0.4,1,1v52c0,0.5-0.4,1-1,1h-11.4c-0.5,0-1-0.4-1-1v-52
		C471.9,16.6,472.3,16.2,472.8,16.2z"/>
	<path class="st3" d="M472.8,1.8h11.4c0.5,0,1,0.4,1,1V11c0,0.5-0.4,1-1,1h-11.4c-0.5,0-1-0.4-1-1V2.7
		C471.9,2.2,472.3,1.8,472.8,1.8z"/>
	<path class="st3" d="M360.6,8.2V2.8c0-0.5-0.4-1-1-1h-11.4c-0.5,0-1,0.4-1,1v20.8c-3.4-5.1-8.3-7.6-14.6-7.6
		c-13.9,0.5-20.9,9.6-20.9,27.4c0,17.4,8.1,26.2,24.3,26.5c16.3,0.1,24.5-7.7,24.5-23.4v-38C360.6,8.3,360.6,8.3,360.6,8.2z
		 M336.3,58.7c-7.5,0-11.1-5.3-11-15.9c0.4-10.1,4.1-15,11.2-15c7.1,0,10.8,4.9,11.1,15C347.6,53.3,343.8,58.7,336.3,58.7z"/>
</g>
</svg>
